<svg width="339" height="70" viewBox="0 0 339 70" fill="none" xmlns="http://www.w3.org/2000/svg">
<g clip-path="url(#clip0_183_307)">
<path d="M22.3337 24.2138C25.4313 24.2138 27.9422 21.6843 27.9422 18.5639C27.9422 15.4436 25.4313 12.9141 22.3337 12.9141C19.2361 12.9141 16.7252 15.4436 16.7252 18.5639C16.7252 21.6843 19.2361 24.2138 22.3337 24.2138Z" fill="#FF5A5F"/>
<path fill-rule="evenodd" clip-rule="evenodd" d="M51.8836 23.2005C50.6733 23.8475 49.2926 24.2139 47.827 24.2139C43.0399 24.2139 39.1592 20.3046 39.1592 15.4822C39.1592 13.9015 39.5762 12.4188 40.3054 11.1398C36.3436 8.99807 31.78 7.77783 26.9224 7.77783C11.7166 7.77783 -0.610229 19.7357 -0.610229 34.4864C-0.610229 35.2043 -0.581031 35.9157 -0.523722 36.6192C0.303831 27.2096 6.98535 19.4501 15.915 16.8922C16.6516 14.0135 19.2461 11.8868 22.3337 11.8868C25.4213 11.8868 28.0158 14.0135 28.7524 16.8922C38.3 19.627 45.2776 28.3086 45.2776 38.5954C45.2776 50.3524 36.1631 60.0125 24.5144 61.0942C25.3079 61.1609 26.1111 61.195 26.9224 61.195C42.1284 61.195 54.4552 49.2371 54.4552 34.4864C54.4552 30.4532 53.5337 26.6288 51.8836 23.2005Z" fill="#0251C9"/>
<path d="M47.8274 23.1866C52.0513 23.1866 55.4754 19.7372 55.4754 15.4822C55.4754 11.2272 52.0513 7.77783 47.8274 7.77783C43.6036 7.77783 40.1794 11.2272 40.1794 15.4822C40.1794 19.7372 43.6036 23.1866 47.8274 23.1866Z" fill="#0251C9"/>
<path d="M22.3342 36.1857C24.8492 33.8416 28.7359 33.9195 31.1588 36.4391C33.5808 38.9599 33.6643 42.9744 31.4115 45.593L22.3321 55.0313L13.2546 45.593C11.0019 42.9744 11.0865 38.9532 13.5073 36.4391C15.9324 33.9228 19.8116 33.8384 22.3342 36.1857Z" fill="#FF5A5F"/>
<path fill-rule="evenodd" clip-rule="evenodd" d="M28.7734 20.1047C28.0662 23.0261 25.4514 25.1944 22.3336 25.1944C19.2158 25.1944 16.6009 23.0261 15.8938 20.1047C8.07231 22.8003 2.44885 30.2697 2.44885 39.0624C2.44885 45.061 5.06625 50.4438 9.21334 54.1149C6.89806 51.2775 5.50804 47.6448 5.50804 43.685C5.50804 34.6076 12.8128 27.2489 21.8238 27.2489C30.8347 27.2489 38.1394 34.6076 38.1394 43.685C38.1394 48.9598 35.6728 53.6542 31.8382 56.6617C38.0223 53.2652 42.2183 46.6575 42.2183 39.0624C42.2183 30.2697 36.5949 22.8003 28.7734 20.1047Z" fill="#FF5A5F"/>
</g>
<path d="M92.605 46.5H88.765V37.38H80.477V46.5H76.637V24.1H80.477V33.86H88.765V24.1H92.605V46.5ZM100.401 46.66C98.7799 46.5747 97.5532 46.116 96.7212 45.284C95.8892 44.4307 95.4732 43.2573 95.4732 41.764C95.4732 40.676 95.7506 39.748 96.3052 38.98C96.8599 38.1907 97.5959 37.572 98.5132 37.124C99.4306 36.676 100.444 36.3987 101.553 36.292C102.684 36.1853 103.825 36.26 104.977 36.516V35.524C104.977 34.8413 104.7 34.3507 104.145 34.052C103.591 33.7533 102.908 33.6147 102.097 33.636C101.308 33.6573 100.508 33.8173 99.6972 34.116C98.9079 34.3933 98.2679 34.7987 97.7772 35.332L95.6332 32.996C96.4439 32.2067 97.4039 31.588 98.5132 31.14C99.6226 30.692 100.764 30.436 101.937 30.372C103.132 30.308 104.252 30.4467 105.297 30.788C106.364 31.1293 107.239 31.684 107.921 32.452C108.455 33.0493 108.753 33.8387 108.817 34.82C108.881 35.8013 108.913 36.8787 108.913 38.052V46.5H105.009V45.028C104.348 45.6467 103.612 46.084 102.801 46.34C101.991 46.5747 101.191 46.6813 100.401 46.66ZM104.881 41.988V39.236C102.663 39.0653 101.116 39.204 100.241 39.652C99.3879 40.1 98.9612 40.7933 98.9612 41.732C98.9612 42.3293 99.1639 42.7667 99.5692 43.044C99.9959 43.3 100.519 43.428 101.137 43.428C101.777 43.4067 102.428 43.2787 103.089 43.044C103.772 42.788 104.369 42.436 104.881 41.988ZM115.946 52.9H112.106V30.5H115.946V31.364C117.162 30.6387 118.41 30.3187 119.69 30.404C120.97 30.468 122.154 30.8627 123.242 31.588C124.33 32.3133 125.204 33.2947 125.866 34.532C126.527 35.7693 126.858 37.188 126.858 38.788C126.858 40.2387 126.527 41.5613 125.866 42.756C125.226 43.9507 124.351 44.9107 123.242 45.636C122.154 46.34 120.927 46.7027 119.562 46.724C119.242 46.724 118.847 46.7027 118.378 46.66C117.908 46.6173 117.45 46.5427 117.002 46.436C116.575 46.308 116.223 46.148 115.946 45.956V52.9ZM115.946 42.34C117.183 42.916 118.335 43.14 119.402 43.012C120.468 42.884 121.332 42.4573 121.994 41.732C122.655 40.9853 122.986 40.004 122.986 38.788C122.986 37.38 122.634 36.2707 121.93 35.46C121.247 34.6493 120.372 34.1907 119.306 34.084C118.239 33.9773 117.119 34.276 115.946 34.98V42.34ZM133.571 52.9H129.731V30.5H133.571V31.364C134.787 30.6387 136.035 30.3187 137.315 30.404C138.595 30.468 139.779 30.8627 140.867 31.588C141.955 32.3133 142.829 33.2947 143.491 34.532C144.152 35.7693 144.483 37.188 144.483 38.788C144.483 40.2387 144.152 41.5613 143.491 42.756C142.851 43.9507 141.976 44.9107 140.867 45.636C139.779 46.34 138.552 46.7027 137.187 46.724C136.867 46.724 136.472 46.7027 136.003 46.66C135.533 46.6173 135.075 46.5427 134.627 46.436C134.2 46.308 133.848 46.148 133.571 45.956V52.9ZM133.571 42.34C134.808 42.916 135.96 43.14 137.027 43.012C138.093 42.884 138.957 42.4573 139.619 41.732C140.28 40.9853 140.611 40.004 140.611 38.788C140.611 37.38 140.259 36.2707 139.555 35.46C138.872 34.6493 137.997 34.1907 136.931 34.084C135.864 33.9773 134.744 34.276 133.571 34.98V42.34ZM147.906 52.068V48.228C148.695 48.2493 149.367 48.1213 149.922 47.844C150.477 47.588 150.893 47.0547 151.17 46.244L145.442 30.5H149.634L153.378 41.828L156.834 30.5H161.09L156.098 44.164C155.607 45.508 155.138 46.6707 154.69 47.652C154.263 48.6333 153.773 49.444 153.218 50.084C152.685 50.7453 151.991 51.236 151.138 51.556C150.306 51.8973 149.229 52.068 147.906 52.068Z" fill="#0251C9"/>
<path d="M180.701 28.004H172.477V33.732H179.133V37.284H172.477V46.5H168.637V24.1H180.701V28.004ZM185.932 46.66C184.311 46.5747 183.084 46.116 182.252 45.284C181.42 44.4307 181.004 43.2573 181.004 41.764C181.004 40.676 181.282 39.748 181.836 38.98C182.391 38.1907 183.127 37.572 184.044 37.124C184.962 36.676 185.975 36.3987 187.084 36.292C188.215 36.1853 189.356 36.26 190.508 36.516V35.524C190.508 34.8413 190.231 34.3507 189.676 34.052C189.122 33.7533 188.439 33.6147 187.628 33.636C186.839 33.6573 186.039 33.8173 185.228 34.116C184.439 34.3933 183.799 34.7987 183.308 35.332L181.164 32.996C181.975 32.2067 182.935 31.588 184.044 31.14C185.154 30.692 186.295 30.436 187.468 30.372C188.663 30.308 189.783 30.4467 190.828 30.788C191.895 31.1293 192.77 31.684 193.452 32.452C193.986 33.0493 194.284 33.8387 194.348 34.82C194.412 35.8013 194.444 36.8787 194.444 38.052V46.5H190.54V45.028C189.879 45.6467 189.143 46.084 188.332 46.34C187.522 46.5747 186.722 46.6813 185.932 46.66ZM190.412 41.988V39.236C188.194 39.0653 186.647 39.204 185.772 39.652C184.919 40.1 184.492 40.7933 184.492 41.732C184.492 42.3293 184.695 42.7667 185.1 43.044C185.527 43.3 186.05 43.428 186.668 43.428C187.308 43.4067 187.959 43.2787 188.62 43.044C189.303 42.788 189.9 42.436 190.412 41.988ZM222.149 46.5H218.309V37.284C218.309 36.1533 218.032 35.364 217.477 34.916C216.944 34.4467 216.218 34.212 215.301 34.212C214.362 34.212 213.541 34.4467 212.837 34.916C212.154 35.364 211.813 36.1533 211.813 37.284V46.5H208.101V37.284C208.101 36.1533 207.792 35.364 207.173 34.916C206.576 34.468 205.861 34.244 205.029 34.244C204.432 34.244 203.856 34.34 203.301 34.532C202.768 34.724 202.33 35.044 201.989 35.492C201.648 35.9187 201.477 36.516 201.477 37.284V46.5H197.637V30.5H201.477V31.716C201.989 31.204 202.576 30.852 203.237 30.66C203.92 30.4467 204.592 30.34 205.253 30.34C206.234 30.34 207.162 30.5213 208.037 30.884C208.933 31.2253 209.648 31.748 210.181 32.452C210.736 31.748 211.525 31.2253 212.549 30.884C213.573 30.5213 214.565 30.34 215.525 30.34C216.72 30.34 217.818 30.6387 218.821 31.236C219.824 31.812 220.624 32.6227 221.221 33.668C221.84 34.692 222.149 35.8973 222.149 37.284V46.5ZM227.379 28.612C226.718 28.612 226.163 28.388 225.715 27.94C225.267 27.492 225.043 26.9373 225.043 26.276C225.043 25.636 225.267 25.092 225.715 24.644C226.163 24.196 226.718 23.972 227.379 23.972C228.019 23.972 228.563 24.196 229.011 24.644C229.459 25.092 229.683 25.636 229.683 26.276C229.683 26.9373 229.459 27.492 229.011 27.94C228.563 28.388 228.019 28.612 227.379 28.612ZM229.139 46.5H225.619V30.5H229.139V46.5ZM236.727 46.5H232.887V24.1H236.727V46.5ZM242.062 52.068V48.228C242.852 48.2493 243.524 48.1213 244.078 47.844C244.633 47.588 245.049 47.0547 245.326 46.244L239.598 30.5H243.79L247.534 41.828L250.99 30.5H255.246L250.254 44.164C249.764 45.508 249.294 46.6707 248.846 47.652C248.42 48.6333 247.929 49.444 247.374 50.084C246.841 50.7453 246.148 51.236 245.294 51.556C244.462 51.8973 243.385 52.068 242.062 52.068Z" fill="#0251C9"/>
<path d="M270.093 46.82C269.133 46.82 268.162 46.6707 267.181 46.372C266.221 46.0733 265.314 45.668 264.461 45.156C263.629 44.6227 262.914 44.036 262.317 43.396L265.165 40.644C265.805 41.3053 266.573 41.8387 267.469 42.244C268.386 42.6493 269.24 42.852 270.029 42.852C271.032 42.852 271.874 42.564 272.557 41.988C273.261 41.3907 273.613 40.6867 273.613 39.876C273.613 39.2147 273.368 38.6493 272.877 38.18C272.386 37.6893 271.778 37.3373 271.053 37.124C269.154 36.612 267.533 36.068 266.189 35.492C264.866 34.916 263.885 34.1587 263.245 33.22C262.605 32.2813 262.37 31.0227 262.541 29.444C262.69 28.2067 263.096 27.1827 263.757 26.372C264.44 25.54 265.293 24.9213 266.317 24.516C267.362 24.1107 268.514 23.908 269.773 23.908C270.904 23.908 272.088 24.0893 273.325 24.452C274.562 24.7933 275.789 25.3693 277.005 26.18L274.285 28.996C273.666 28.6547 272.994 28.3667 272.269 28.132C271.544 27.8973 270.797 27.7693 270.029 27.748C269.432 27.7267 268.856 27.7907 268.301 27.94C267.768 28.068 267.32 28.3027 266.957 28.644C266.594 28.964 266.402 29.4013 266.381 29.956C266.36 30.5747 266.52 31.0547 266.861 31.396C267.202 31.7373 267.672 32.0147 268.269 32.228C268.888 32.4413 269.602 32.676 270.413 32.932C271.906 33.3373 273.176 33.8067 274.221 34.34C275.266 34.852 276.066 35.5453 276.621 36.42C277.176 37.2733 277.453 38.4253 277.453 39.876C277.453 41.1773 277.122 42.3507 276.461 43.396C275.8 44.4413 274.914 45.2733 273.805 45.892C272.696 46.5107 271.458 46.82 270.093 46.82ZM281.372 39.236V34.052H279.036V30.5H281.372V24.1H285.148V30.5H287.644V34.052H285.148V39.236C285.148 40.196 285.222 40.9213 285.372 41.412C285.521 41.9027 285.724 42.244 285.98 42.436C286.257 42.6067 286.556 42.7027 286.876 42.724C287.217 42.7453 287.558 42.756 287.9 42.756H288.444V46.564H287.964C286.79 46.564 285.788 46.4787 284.956 46.308C284.124 46.1373 283.441 45.8067 282.908 45.316C282.374 44.804 281.98 44.068 281.724 43.108C281.489 42.1267 281.372 40.836 281.372 39.236ZM298.748 46.916C297.212 46.916 295.858 46.5853 294.684 45.924C293.532 45.2413 292.626 44.3027 291.964 43.108C291.324 41.892 291.004 40.484 291.004 38.884C291.004 36.068 291.708 33.9453 293.116 32.516C294.546 31.0653 296.423 30.34 298.748 30.34C300.263 30.34 301.596 30.66 302.748 31.3C303.922 31.94 304.839 32.9 305.5 34.18C306.162 35.4387 306.492 37.0067 306.492 38.884C306.492 40.484 306.162 41.892 305.5 43.108C304.839 44.3027 303.922 45.2413 302.748 45.924C301.596 46.5853 300.263 46.916 298.748 46.916ZM298.748 43.236C299.623 43.236 300.359 43.0333 300.956 42.628C301.575 42.2013 302.034 41.6573 302.332 40.996C302.652 40.3347 302.812 39.6307 302.812 38.884C302.812 37.54 302.46 36.3987 301.756 35.46C301.074 34.5 300.071 34.02 298.748 34.02C297.468 34.02 296.466 34.4787 295.74 35.396C295.036 36.3133 294.684 37.476 294.684 38.884C294.684 39.652 294.844 40.3667 295.164 41.028C295.484 41.6893 295.943 42.2227 296.54 42.628C297.159 43.0333 297.895 43.236 298.748 43.236ZM309.387 46.5V30.5H313.195V31.684C314.027 30.8307 315.019 30.4147 316.171 30.436C317.344 30.4573 318.635 30.692 320.043 31.14L318.187 34.436C317.376 34.1587 316.576 34.0733 315.787 34.18C315.019 34.2867 314.39 34.5213 313.899 34.884C313.408 35.2467 313.174 35.684 313.195 36.196V46.5H309.387ZM336.02 39.972H324.82C324.905 40.932 325.268 41.668 325.908 42.18C326.548 42.692 327.337 42.9907 328.276 43.076C329.215 43.14 330.175 43.012 331.156 42.692C332.159 42.3507 333.055 41.8387 333.844 41.156L335.956 44.068C334.783 45.0493 333.588 45.7533 332.372 46.18C331.177 46.5853 329.993 46.788 328.82 46.788C326.111 46.788 324.073 46.0307 322.708 44.516C321.364 43.0013 320.692 40.8573 320.692 38.084C320.692 36.5053 321.001 35.1293 321.62 33.956C322.26 32.7827 323.156 31.876 324.308 31.236C325.481 30.596 326.857 30.2867 328.436 30.308C331.892 30.3507 334.196 31.7053 335.348 34.372C335.668 35.14 335.871 35.9827 335.956 36.9C336.063 37.8173 336.084 38.8413 336.02 39.972ZM328.788 33.892C327.487 33.892 326.495 34.244 325.812 34.948C325.151 35.652 324.82 36.4307 324.82 37.284H332.724C332.724 36.4093 332.383 35.6307 331.7 34.948C331.039 34.244 330.068 33.892 328.788 33.892Z" fill="#0251C9"/>
<defs>
<clipPath id="clip0_183_307">
<rect width="57.037" height="70" fill="white"/>
</clipPath>
</defs>
</svg>
