<svg width="57.000000" height="44.000000" viewBox="0 0 57 44" fill="none" xmlns="http://www.w3.org/2000/svg" xmlns:xlink="http://www.w3.org/1999/xlink">
	<desc>
			Created with Pixso.
	</desc>
	<defs>
		<filter id="filter_4_132_dd" x="-0.500000" y="24.101318" width="36.782471" height="18.898682" filterUnits="userSpaceOnUse" color-interpolation-filters="sRGB">
			<feFlood flood-opacity="0" result="BackgroundImageFix"/>
			<feGaussianBlur in="BackgroundImage" stdDeviation="6"/>
			<feComposite in2="SourceAlpha" operator="in" result="effect_backgroundBlur_1"/>
			<feBlend mode="normal" in="SourceGraphic" in2="effect_backgroundBlur_1" result="shape"/>
		</filter>
		<filter id="filter_4_133_dd" x="8.614868" y="0.901733" width="18.544800" height="18.763672" filterUnits="userSpaceOnUse" color-interpolation-filters="sRGB">
			<feFlood flood-opacity="0" result="BackgroundImageFix"/>
			<feGaussianBlur in="BackgroundImage" stdDeviation="6"/>
			<feComposite in2="SourceAlpha" operator="in" result="effect_backgroundBlur_1"/>
			<feBlend mode="normal" in="SourceGraphic" in2="effect_backgroundBlur_1" result="shape"/>
		</filter>
		<linearGradient id="paint_linear_4_129_0" x1="41.833649" y1="51.295044" x2="41.833649" y2="5.973862" gradientUnits="userSpaceOnUse">
			<stop stop-color="#F6005A"/>
			<stop offset="0.792058" stop-color="#FFFFFF"/>
		</linearGradient>
		<linearGradient id="paint_linear_4_132_0" x1="1.576580" y1="41.933086" x2="34.205898" y2="25.168262" gradientUnits="userSpaceOnUse">
			<stop stop-color="#FFFFFF" stop-opacity="0.200000"/>
			<stop offset="1.000000" stop-color="#FFFFFF" stop-opacity="0.490196"/>
		</linearGradient>
		<linearGradient id="paint_linear_4_132_1" x1="2.096428" y1="25.587654" x2="32.843113" y2="42.478859" gradientUnits="userSpaceOnUse">
			<stop stop-color="#FFFFFF"/>
			<stop offset="1.000000" stop-color="#FFFFFF" stop-opacity="0.000000"/>
		</linearGradient>
		<linearGradient id="paint_linear_4_133_0" x1="11.772655" y1="20.293056" x2="24.001862" y2="0.274054" gradientUnits="userSpaceOnUse">
			<stop stop-color="#FFFFFF" stop-opacity="0.200000"/>
			<stop offset="1.000000" stop-color="#FFFFFF" stop-opacity="0.490196"/>
		</linearGradient>
		<linearGradient id="paint_linear_4_133_1" x1="8.344072" y1="4.440973" x2="27.234426" y2="17.157351" gradientUnits="userSpaceOnUse">
			<stop stop-color="#FFFFFF"/>
			<stop offset="1.000000" stop-color="#FFFFFF" stop-opacity="0.000000"/>
		</linearGradient>
	</defs>
	<path id="Vector" d="M56.46 40.11C55.12 33.16 49.08 27.92 41.83 27.92C34.57 27.92 28.53 33.16 27.2 40.11C26.91 41.61 28.08 43 29.59 43L54.06 43C55.57 43 56.74 41.61 56.45 40.11L56.46 40.11Z" fill="url(#paint_linear_4_129_0)" fill-opacity="1.000000" fill-rule="nonzero"/>
	<path id="Vector" d="M49.23 16.89C49.23 21.03 45.91 24.38 41.83 24.38C37.74 24.38 34.43 21.03 34.43 16.89C34.43 12.76 37.74 9.41 41.83 9.41C45.91 9.41 49.23 12.76 49.23 16.89Z" fill="#FFFFFF" fill-opacity="1.000000" fill-rule="evenodd"/>
	<g filter="url(#filter_4_132_dd)">
		<path id="Vector" d="M36.23 39.37C34.56 30.67 26.98 24.1 17.89 24.1C8.79 24.1 1.22 30.67 -0.45 39.37C-0.81 41.26 0.65 43 2.55 43L33.23 43C35.12 43 36.58 41.26 36.22 39.37L36.23 39.37Z" fill="url(#paint_linear_4_132_0)" fill-opacity="1.000000" fill-rule="nonzero"/>
	</g>
	<path id="Vector" d="M35.73 37.37C33.36 29.68 26.27 24.1 17.89 24.1C8.79 24.1 1.22 30.67 -0.45 39.37C-0.81 41.26 0.65 43 2.55 43L33.23 43C34.72 43 35.95 41.91 36.22 40.52C36.29 40.16 36.3 39.77 36.22 39.38L36.22 39.37L36.23 39.37L36.23 39.37C36.1 38.69 35.93 38.03 35.73 37.37ZM34.19 39.37C34 38.53 33.76 37.71 33.46 36.92C33.12 36.03 32.71 35.17 32.21 34.33C31.71 33.47 31.13 32.67 30.5 31.93C29.9 31.24 29.26 30.59 28.55 30C27.7 29.28 26.8 28.66 25.84 28.14C25.14 27.75 24.41 27.42 23.66 27.13C22.86 26.84 22.05 26.6 21.22 26.43C20.13 26.21 19.02 26.1 17.89 26.1C16.75 26.1 15.64 26.21 14.56 26.43C13.73 26.6 12.92 26.84 12.12 27.13C11.36 27.42 10.63 27.75 9.93 28.14C8.98 28.66 8.08 29.28 7.22 30C6.52 30.59 5.87 31.24 5.28 31.93C4.64 32.67 4.07 33.47 3.56 34.33C3.07 35.17 2.66 36.03 2.32 36.92C1.97 37.83 1.7 38.78 1.51 39.75C1.49 39.86 1.49 39.96 1.5 40.06C1.51 40.11 1.52 40.16 1.53 40.21C1.54 40.26 1.56 40.3 1.58 40.35C1.62 40.44 1.67 40.53 1.74 40.61C1.8 40.69 1.87 40.75 1.95 40.81C2 40.84 2.05 40.87 2.1 40.89C2.16 40.92 2.22 40.94 2.28 40.96C2.37 40.98 2.45 41 2.55 41L33.23 41C33.32 41 33.41 40.98 33.49 40.96C33.55 40.94 33.61 40.92 33.67 40.89C33.73 40.87 33.78 40.84 33.82 40.81C33.9 40.75 33.97 40.69 34.03 40.61C34.1 40.53 34.15 40.44 34.19 40.35C34.21 40.3 34.23 40.26 34.24 40.21C34.26 40.16 34.27 40.11 34.27 40.06C34.28 39.96 34.28 39.86 34.26 39.75L34.19 39.37Z" fill="url(#paint_linear_4_132_1)" fill-opacity="1.000000" fill-rule="evenodd"/>
	<g filter="url(#filter_4_133_dd)">
		<path id="Vector" d="M26.9 8.12C28.08 13.17 24.99 18.22 20.01 19.41C15.03 20.6 10.04 17.48 8.86 12.43C7.68 7.39 10.77 2.34 15.75 1.15C20.74 -0.04 25.73 3.08 26.9 8.12Z" fill="url(#paint_linear_4_133_0)" fill-opacity="1.000000" fill-rule="evenodd"/>
	</g>
	<path id="Vector" d="M20.01 19.41C24.99 18.22 28.08 13.17 26.9 8.12C25.73 3.08 20.74 -0.04 15.75 1.15C10.77 2.34 7.68 7.39 8.86 12.43C10.04 17.48 15.03 20.6 20.01 19.41ZM21.07 16.92C20.59 17.15 20.09 17.33 19.56 17.46C19.03 17.59 18.49 17.65 17.96 17.66C17.53 17.66 17.11 17.63 16.68 17.56C16.28 17.49 15.89 17.39 15.51 17.25C15.01 17.08 14.53 16.85 14.07 16.56C13.66 16.3 13.28 16.01 12.93 15.68C12.6 15.37 12.29 15.02 12.02 14.64C11.77 14.3 11.56 13.95 11.38 13.59C11.13 13.08 10.94 12.54 10.81 11.97C10.67 11.4 10.61 10.83 10.61 10.26C10.61 9.85 10.64 9.44 10.71 9.03C10.79 8.57 10.91 8.12 11.07 7.68C11.23 7.24 11.44 6.8 11.7 6.39C11.98 5.92 12.31 5.49 12.68 5.11C12.96 4.82 13.26 4.56 13.59 4.31C13.94 4.05 14.31 3.83 14.69 3.64C15.17 3.41 15.68 3.22 16.21 3.1C16.74 2.97 17.27 2.9 17.8 2.9C18.23 2.89 18.66 2.93 19.09 3C19.48 3.07 19.87 3.17 20.25 3.3C20.75 3.48 21.23 3.71 21.69 4C22.1 4.26 22.48 4.55 22.83 4.87C23.17 5.19 23.47 5.54 23.75 5.92C23.99 6.26 24.2 6.61 24.38 6.97C24.63 7.48 24.83 8.02 24.96 8.59C25.09 9.16 25.16 9.73 25.16 10.3C25.16 10.71 25.12 11.11 25.05 11.52C24.98 11.99 24.86 12.44 24.7 12.87C24.53 13.32 24.32 13.75 24.07 14.17C23.78 14.64 23.45 15.06 23.08 15.45C22.8 15.74 22.5 16 22.17 16.24C21.82 16.5 21.46 16.73 21.07 16.92Z" fill="url(#paint_linear_4_133_1)" fill-opacity="1.000000" fill-rule="evenodd"/>
</svg>
