<svg width="35.000000" height="35.000000" viewBox="0 0 35 35" fill="none" xmlns="http://www.w3.org/2000/svg" xmlns:xlink="http://www.w3.org/1999/xlink">
	<desc>
			Created with Pixso.
	</desc>
	<defs>
		<filter id="filter_183_475_dd" x="3.405396" y="0.000000" width="27.192871" height="32.110718" filterUnits="userSpaceOnUse" color-interpolation-filters="sRGB">
			<feFlood flood-opacity="0" result="BackgroundImageFix"/>
			<feGaussianBlur in="BackgroundImage" stdDeviation="6"/>
			<feComposite in2="SourceAlpha" operator="in" result="effect_backgroundBlur_1"/>
			<feBlend mode="normal" in="SourceGraphic" in2="effect_backgroundBlur_1" result="shape"/>
		</filter>
		<linearGradient id="paint_linear_183_474_0" x1="-0.499879" y1="28.000004" x2="34.500122" y2="28.000004" gradientUnits="userSpaceOnUse">
			<stop stop-color="#FF5A5F"/>
			<stop offset="0.520000" stop-color="#FFAFB1"/>
			<stop offset="1.000000" stop-color="#FFE0F9"/>
		</linearGradient>
		<linearGradient id="paint_linear_183_475_0" x1="4.940588" y1="30.297884" x2="29.063082" y2="1.812841" gradientUnits="userSpaceOnUse">
			<stop stop-color="#FFFFFF" stop-opacity="0.200000"/>
			<stop offset="1.000000" stop-color="#FFFFFF" stop-opacity="0.490196"/>
		</linearGradient>
		<linearGradient id="paint_linear_183_475_1" x1="5.324905" y1="2.525446" x2="28.055590" y2="31.225218" gradientUnits="userSpaceOnUse">
			<stop stop-color="#FFFFFF"/>
			<stop offset="1.000000" stop-color="#FFFFFF" stop-opacity="0.000000"/>
		</linearGradient>
	</defs>
	<path id="Vector" d="M26.34 34.99L7.65 34.99C6.36 34.99 5.16 34.33 4.45 33.22L-0.38 26.62C-2.04 24.02 -0.21 20.56 2.82 20.56L31.17 20.56C34.2 20.56 36.03 24.02 34.37 26.62L29.54 33.22C28.83 34.33 27.63 34.99 26.34 34.99Z" fill="url(#paint_linear_183_474_0)" fill-opacity="1.000000" fill-rule="nonzero"/>
	<g filter="url(#filter_183_475_dd)">
		<path id="Vector" d="M26.61 4.08C21.3 -1.37 12.69 -1.37 7.38 4.08C2.07 9.53 2.07 18.36 7.38 23.81L14.39 31C15.83 32.47 18.16 32.47 19.6 31L26.61 23.81C31.92 18.36 31.92 9.53 26.61 4.08ZM21.45 18.51C18.99 21.04 15 21.04 12.54 18.51C10.08 15.99 10.08 11.9 12.54 9.37C15 6.85 18.99 6.85 21.45 9.37C23.91 11.9 23.91 15.99 21.45 18.51Z" fill="url(#paint_linear_183_475_0)" fill-opacity="1.000000" fill-rule="nonzero"/>
	</g>
	<path id="Vector" d="M26.61 4.08C21.3 -1.37 12.69 -1.37 7.38 4.08C2.07 9.53 2.07 18.36 7.38 23.81L14.39 31C15.83 32.47 18.16 32.47 19.6 31L26.61 23.81C31.92 18.36 31.92 9.53 26.61 4.08ZM6.34 9.13Q7.19 7.14 8.82 5.48L8.82 5.48Q10.6 3.65 12.76 2.78Q14.72 2 17 2Q19.26 2 21.22 2.78Q23.39 3.65 25.18 5.48Q26.8 7.14 27.65 9.13Q28.59 11.33 28.59 13.94Q28.59 16.55 27.65 18.76Q26.8 20.75 25.18 22.41L18.17 29.6Q17.9 29.88 17.58 30Q17.31 30.11 17 30.11Q16.69 30.11 16.42 30Q16.09 29.88 15.83 29.6L8.82 22.41Q7.2 20.75 6.35 18.76Q5.4 16.56 5.4 13.95Q5.4 11.34 6.34 9.13ZM9.34 17.29Q9.94 18.72 11.11 19.91L11.11 19.91Q12.37 21.2 13.9 21.82Q15.33 22.41 17 22.41Q18.67 22.41 20.1 21.82Q21.63 21.2 22.88 19.91Q24.05 18.71 24.65 17.28Q25.29 15.74 25.29 13.94Q25.29 12.14 24.65 10.6Q24.05 9.17 22.88 7.98Q21.62 6.69 20.09 6.06Q18.66 5.48 16.99 5.48Q15.32 5.48 13.89 6.06Q12.36 6.69 11.11 7.98Q9.94 9.17 9.34 10.61Q8.7 12.14 8.7 13.94Q8.7 15.75 9.34 17.29ZM21.45 9.37C23.91 11.9 23.91 15.99 21.45 18.51C18.99 21.04 15 21.04 12.54 18.51C10.08 15.99 10.08 11.9 12.54 9.37C15 6.85 18.99 6.85 21.45 9.37Z" fill="url(#paint_linear_183_475_1)" fill-opacity="1.000000" fill-rule="evenodd"/>
</svg>
