<svg width="54.000000" height="54.000000" viewBox="0 0 54 54" fill="none" xmlns="http://www.w3.org/2000/svg" xmlns:xlink="http://www.w3.org/1999/xlink">
	<desc>
			Created with Pixso.
	</desc>
	<defs>
		<filter id="filter_4_111_dd" x="-0.500000" y="0.000000" width="54.000000" height="36.654541" filterUnits="userSpaceOnUse" color-interpolation-filters="sRGB">
			<feFlood flood-opacity="0" result="BackgroundImageFix"/>
			<feGaussianBlur in="BackgroundImage" stdDeviation="6"/>
			<feComposite in2="SourceAlpha" operator="in" result="effect_backgroundBlur_1"/>
			<feBlend mode="normal" in="SourceGraphic" in2="effect_backgroundBlur_1" result="shape"/>
		</filter>
		<linearGradient id="paint_linear_4_110_0" x1="5.317043" y1="47.333725" x2="47.990402" y2="37.866821" gradientUnits="userSpaceOnUse">
			<stop stop-color="#6DB7FF"/>
			<stop offset="0.732719" stop-color="#FFFFFF"/>
		</linearGradient>
		<linearGradient id="paint_linear_4_111_0" x1="2.548607" y1="34.585175" x2="50.451393" y2="2.069366" gradientUnits="userSpaceOnUse">
			<stop stop-color="#FFFFFF" stop-opacity="0.200000"/>
			<stop offset="1.000000" stop-color="#FFFFFF" stop-opacity="0.490196"/>
		</linearGradient>
		<linearGradient id="paint_linear_4_111_1" x1="3.311787" y1="2.882805" x2="48.450691" y2="35.643738" gradientUnits="userSpaceOnUse">
			<stop stop-color="#FFFFFF"/>
			<stop offset="1.000000" stop-color="#FFFFFF" stop-opacity="0.000000"/>
		</linearGradient>
	</defs>
	<path id="Vector" d="M35.23 22.81L13.88 37.86C12.82 38.6 13.32 40.36 14.59 40.36L19.38 40.36C20.34 40.36 20.96 41.44 20.52 42.35L15.91 52C15.31 53.25 16.66 54.53 17.76 53.76L39.11 38.72C40.17 37.97 39.67 36.21 38.4 36.21L33.61 36.21C32.65 36.21 32.03 35.13 32.47 34.22L37.08 24.57C37.68 23.32 36.33 22.04 35.23 22.81Z" fill="url(#paint_linear_4_110_0)" fill-opacity="1.000000" fill-rule="nonzero"/>
	<g filter="url(#filter_4_111_dd)">
		<path id="Vector" d="M43.74 15.9L42.99 15.9C42.09 6.96 34.98 0 26.33 0C18.95 0 12.69 5.07 10.46 12.12C4.35 12.44 -0.5 17.8 -0.5 24.37C-0.5 30.37 3.55 35.36 8.89 36.44C9.53 36.58 10.2 36.65 10.88 36.65L43.74 36.65C49.13 36.65 53.5 32.01 53.5 26.28C53.5 20.55 49.13 15.9 43.74 15.9Z" fill="url(#paint_linear_4_111_0)" fill-opacity="1.000000" fill-rule="nonzero"/>
	</g>
	<path id="Vector" d="M42.99 15.9C42.09 6.96 34.98 0 26.33 0C18.95 0 12.69 5.07 10.46 12.12C4.35 12.44 -0.5 17.8 -0.5 24.37C-0.5 30.37 3.55 35.36 8.89 36.44C9.53 36.58 10.2 36.65 10.88 36.65L43.74 36.65C49.13 36.65 53.5 32.01 53.5 26.28C53.5 20.55 49.13 15.9 43.74 15.9L42.99 15.9ZM39.16 9.93C40.16 11.78 40.77 13.84 41 16.1L41.18 17.9L43.74 17.9C44.66 17.9 45.53 18.06 46.34 18.36C47.38 18.76 48.33 19.41 49.18 20.31C49.85 21.02 50.37 21.8 50.75 22.64C51.25 23.74 51.5 24.95 51.5 26.28C51.5 27.6 51.25 28.81 50.75 29.92C50.37 30.76 49.85 31.53 49.18 32.24C48.33 33.14 47.38 33.79 46.34 34.19C45.53 34.5 44.66 34.65 43.74 34.65L10.88 34.65C10.81 34.65 10.73 34.65 10.66 34.65C10.2 34.63 9.74 34.57 9.29 34.47C8.4 34.3 7.58 34.01 6.82 33.61C5.66 33 4.64 32.13 3.76 31.01C3.11 30.19 2.6 29.32 2.23 28.39C1.74 27.15 1.5 25.81 1.5 24.37C1.5 22.81 1.78 21.37 2.35 20.05C2.79 19.04 3.4 18.1 4.17 17.24C5.18 16.12 6.3 15.3 7.55 14.78C8.49 14.39 9.49 14.17 10.56 14.11L11.95 14.04L12.36 12.72C12.96 10.84 13.83 9.17 14.96 7.71C15.74 6.71 16.65 5.8 17.69 4.99C19.11 3.89 20.62 3.09 22.23 2.6C23.54 2.2 24.9 2 26.33 2C28 2 29.58 2.26 31.06 2.79C32.92 3.46 34.62 4.54 36.18 6.04C37.4 7.21 38.39 8.51 39.16 9.93Z" fill="url(#paint_linear_4_111_1)" fill-opacity="1.000000" fill-rule="evenodd"/>
</svg>
