<svg width="54.000000" height="54.000000" viewBox="0 0 54 54" fill="none" xmlns="http://www.w3.org/2000/svg" xmlns:xlink="http://www.w3.org/1999/xlink">
	<desc>
			Created with Pixso.
	</desc>
	<defs>
		<filter id="filter_171_2115_dd" x="-0.500244" y="0.006836" width="45.369141" height="53.074707" filterUnits="userSpaceOnUse" color-interpolation-filters="sRGB">
			<feFlood flood-opacity="0" result="BackgroundImageFix"/>
			<feGaussianBlur in="BackgroundImage" stdDeviation="6"/>
			<feComposite in2="SourceAlpha" operator="in" result="effect_backgroundBlur_1"/>
			<feBlend mode="normal" in="SourceGraphic" in2="effect_backgroundBlur_1" result="shape"/>
		</filter>
		<linearGradient id="paint_linear_171_2114_0" x1="36.644871" y1="56.174244" x2="36.644871" y2="2.456230" gradientUnits="userSpaceOnUse">
			<stop stop-color="#FF5A5F"/>
			<stop offset="0.520000" stop-color="#FFAFB1"/>
			<stop offset="1.000000" stop-color="#FFE0F9"/>
		</linearGradient>
		<linearGradient id="paint_linear_171_2115_0" x1="2.061108" y1="50.085300" x2="42.307583" y2="3.003231" gradientUnits="userSpaceOnUse">
			<stop stop-color="#FFFFFF" stop-opacity="0.200000"/>
			<stop offset="1.000000" stop-color="#FFFFFF" stop-opacity="0.490196"/>
		</linearGradient>
		<linearGradient id="paint_linear_171_2115_1" x1="2.702305" y1="4.181068" x2="40.626640" y2="51.618057" gradientUnits="userSpaceOnUse">
			<stop stop-color="#FFFFFF"/>
			<stop offset="1.000000" stop-color="#FFFFFF" stop-opacity="0.000000"/>
		</linearGradient>
	</defs>
	<path id="Vector" d="M46.99 54L26.29 54C22.69 54 19.78 51.03 19.78 47.37L19.78 19.5C19.78 17.97 20.3 16.49 21.25 15.3L31.6 2.43C34.2 -0.82 39.07 -0.82 41.67 2.43L52.03 15.3C52.98 16.49 53.49 17.97 53.49 19.5L53.49 47.37C53.49 51.03 50.58 54 46.99 54L46.99 54Z" fill="url(#paint_linear_171_2114_0)" fill-opacity="1.000000" fill-rule="nonzero"/>
	<g filter="url(#filter_171_2115_dd)">
		<path id="Vector" d="M44.83 22.49L43.15 5.95C42.72 1.78 38.66 -0.94 34.73 0.31L19.13 5.26C17.7 5.72 16.47 6.67 15.64 7.94L0.57 31.22C-1.41 34.27 -0.58 38.38 2.42 40.39L19.71 51.98C22.71 53.99 26.75 53.15 28.73 50.1L43.79 26.82C44.62 25.55 44.98 24.01 44.83 22.49L44.83 22.49ZM40.23 9.8C38.81 12 35.9 12.61 33.74 11.16C31.58 9.71 30.98 6.75 32.41 4.55C33.83 2.35 36.74 1.75 38.9 3.2C41.06 4.65 41.65 7.6 40.23 9.8Z" fill="url(#paint_linear_171_2115_0)" fill-opacity="1.000000" fill-rule="nonzero"/>
	</g>
	<path id="Vector" d="M44.63 20.49L44.83 22.49L44.83 22.49L44.83 22.49L44.83 22.49C44.88 22.95 44.88 23.41 44.83 23.87C44.72 24.92 44.37 25.93 43.79 26.82L28.73 50.1C26.75 53.15 22.71 53.99 19.71 51.98L2.42 40.39C-0.58 38.38 -1.41 34.27 0.57 31.22L15.64 7.94C16.47 6.67 17.7 5.72 19.13 5.26L34.73 0.31C38.66 -0.94 42.72 1.78 43.15 5.95L44.63 20.49ZM42.62 20.49L41.68 11.23Q40.97 12.2 40.03 12.83Q38.99 13.53 37.67 13.81Q36.33 14.09 35.08 13.85Q33.8 13.61 32.63 12.82Q31.51 12.07 30.8 11.03Q30.05 9.94 29.77 8.53Q29.49 7.15 29.74 5.88Q29.95 4.77 30.57 3.73L19.74 7.17Q19.05 7.39 18.49 7.79Q17.81 8.27 17.32 9.03L2.25 32.3Q1.74 33.09 1.57 33.94Q1.39 34.84 1.59 35.8Q1.79 36.8 2.32 37.56Q2.8 38.24 3.54 38.73L20.82 50.32Q21.62 50.85 22.48 51.02Q23.31 51.17 24.19 50.98Q25.06 50.8 25.74 50.35Q26.5 49.85 27.05 49.01L42.11 25.74Q42.54 25.07 42.73 24.35Q42.93 23.56 42.84 22.7L42.61 20.49L42.62 20.49ZM40.23 9.8C38.81 12 35.9 12.61 33.74 11.16C31.58 9.71 30.98 6.75 32.41 4.55C33.83 2.35 36.74 1.75 38.9 3.2C41.06 4.65 41.65 7.6 40.23 9.8Z" fill="url(#paint_linear_171_2115_1)" fill-opacity="1.000000" fill-rule="evenodd"/>
</svg>
