<svg width="54.000000" height="42.000000" viewBox="0 0 54 42" fill="none" xmlns="http://www.w3.org/2000/svg" xmlns:xlink="http://www.w3.org/1999/xlink">
	<desc>
			Created with Pixso.
	</desc>
	<defs>
		<filter id="filter_4_47_dd" x="11.012451" y="0.000000" width="31.248779" height="42.000000" filterUnits="userSpaceOnUse" color-interpolation-filters="sRGB">
			<feFlood flood-opacity="0" result="BackgroundImageFix"/>
			<feGaussianBlur in="BackgroundImage" stdDeviation="6"/>
			<feComposite in2="SourceAlpha" operator="in" result="effect_backgroundBlur_1"/>
			<feBlend mode="normal" in="SourceGraphic" in2="effect_backgroundBlur_1" result="shape"/>
		</filter>
		<linearGradient id="paint_linear_4_44_0" x1="20.157822" y1="29.910118" x2="72.855774" y2="-1.247336" gradientUnits="userSpaceOnUse">
			<stop offset="0.306666" stop-color="#6DB7FF"/>
			<stop offset="0.732719" stop-color="#FFFFFF"/>
		</linearGradient>
		<linearGradient id="paint_linear_4_45_0" x1="-10.816681" y1="29.910103" x2="41.881340" y2="-1.247321" gradientUnits="userSpaceOnUse">
			<stop stop-color="#FF5A5F"/>
			<stop offset="0.520000" stop-color="#FFA9AB"/>
			<stop offset="1.000000" stop-color="#C5E7FE"/>
		</linearGradient>
		<linearGradient id="paint_linear_4_47_0" x1="12.776615" y1="39.628860" x2="40.497013" y2="2.371149" gradientUnits="userSpaceOnUse">
			<stop stop-color="#FFFFFF" stop-opacity="0.200000"/>
			<stop offset="1.000000" stop-color="#FFFFFF" stop-opacity="0.490196"/>
		</linearGradient>
		<linearGradient id="paint_linear_4_47_1" x1="13.218260" y1="3.303219" x2="39.339252" y2="40.841789" gradientUnits="userSpaceOnUse">
			<stop stop-color="#FFFFFF"/>
			<stop offset="1.000000" stop-color="#FFFFFF" stop-opacity="0.000000"/>
		</linearGradient>
	</defs>
	<path id="Vector" d="M33.87 5.52L50.1 5.52C51.97 5.52 53.49 7.06 53.49 8.95L53.49 33.04C53.49 34.94 51.97 36.47 50.1 36.47L33.87 36.47C31.99 36.47 30.47 34.94 30.47 33.04L30.47 8.95C30.47 7.06 31.99 5.52 33.87 5.52Z" fill="url(#paint_linear_4_44_0)" fill-opacity="1.000000" fill-rule="evenodd"/>
	<path id="Vector" d="M2.89 5.52L19.12 5.52C21 5.52 22.52 7.06 22.52 8.95L22.52 33.04C22.52 34.94 21 36.47 19.12 36.47L2.89 36.47C1.02 36.47 -0.51 34.94 -0.51 33.04L-0.51 8.95C-0.51 7.06 1.02 5.52 2.89 5.52Z" fill="url(#paint_linear_4_45_0)" fill-opacity="1.000000" fill-rule="evenodd"/>
	<g filter="url(#filter_4_47_dd)">
		<path id="Vector" d="M14.41 0L38.86 0C40.73 0 42.26 1.53 42.26 3.42L42.26 38.57C42.26 40.46 40.73 42 38.86 42L14.41 42C12.53 42 11.01 40.46 11.01 38.57L11.01 3.42C11.01 1.53 12.53 0 14.41 0Z" fill="url(#paint_linear_4_47_0)" fill-opacity="1.000000" fill-rule="evenodd"/>
	</g>
	<path id="Vector" d="M38.86 0L14.41 0C12.53 0 11.01 1.53 11.01 3.42L11.01 38.57C11.01 40.46 12.53 42 14.41 42L38.86 42C40.73 42 42.26 40.46 42.26 38.57L42.26 3.42C42.26 1.53 40.73 0 38.86 0ZM14.41 2L38.86 2C39.31 2 39.66 2.11 39.89 2.34C40.13 2.58 40.26 2.94 40.26 3.42L40.26 38.57C40.26 39.05 40.13 39.41 39.89 39.65C39.66 39.88 39.31 40 38.86 40L14.41 40C13.95 40 13.6 39.88 13.37 39.65C13.13 39.41 13.01 39.05 13.01 38.57L13.01 3.42C13.01 3.22 13.04 3.03 13.12 2.85C13.19 2.69 13.29 2.54 13.42 2.41C13.56 2.27 13.72 2.16 13.89 2.09C14.05 2.03 14.22 2 14.41 2Z" fill="url(#paint_linear_4_47_1)" fill-opacity="1.000000" fill-rule="evenodd"/>
	<ellipse id="Ellipse 17" cx="25.825439" cy="19.358521" rx="5.153146" ry="5.203190" stroke="#FFFFFF" stroke-opacity="1.000000" stroke-width="2.000000"/>
	<line id="Line 2" x1="29.415039" y1="23.037109" x2="34.482300" y2="28.145630" stroke="#FFFFFF" stroke-opacity="1.000000" stroke-width="2.000000"/>
</svg>
